<?xml version="1.0" encoding="utf-8"?>
<!-- Generator: Adobe Illustrator 24.0.1, SVG Export Plug-In . SVG Version: 6.00 Build 0)  -->
<svg version="1.1" id="Layer_1" xmlns="http://www.w3.org/2000/svg" xmlns:xlink="http://www.w3.org/1999/xlink" x="0px" y="0px"
	 viewBox="0 0 1327.6 166.1" style="enable-background:new 0 0 1327.6 166.1;" xml:space="preserve">
<style type="text/css">
	.st0{fill:#FFFFFF;}
	.st1{fill:#E52D1A;}
	.st2{fill:#030202;}
</style>
<path class="st0" d="M1284,92.8c-15.8,0.2-31.6,0.3-47.5,0.3c-3.3,0-6.7,0.3-10-1.9c-0.2-3.1-1.4-6.3,0.9-9.3
	c2.3-1.2,4.6-1.2,6.9-1.1c21.5,0.3,43-0.8,64.4,0.7c4.6,0.3,8.2-0.9,8.3-6.2c0.1-5.1-0.4-10.2-0.7-15.3c-4.5-2.6-8.6-1.2-12.5-1.2
	c-21.5-0.1-43-0.2-64.5,0c-13.7,0.1-24,10.2-25.8,24.8c-1.6,13.2,6.7,26.7,18.7,30.1c5.2,1.5,10.5,1.4,15.9,1.3
	c14.8-0.2,29.6-0.2,44.4-0.3c4.4,0,6.2,2.1,6,6.6c-0.3,5.8-4.5,5.4-8.3,5.4c-21.8,0-43.6-0.2-65.4-0.3c-2.3,0-4.7-0.1-6.3,1.9
	c0,6.4,0,12.6,0,18.3c1.6,1.8,3.1,1.8,4.6,1.8c23.5,0,47,0.3,70.5-0.1c18.8-0.3,29-12.8,26.6-31.6
	C1308.3,101.7,1298.3,92.7,1284,92.8z"/>
<path class="st0" d="M1096.1,59.3c0,7.1,0,13.9,0,21.4c13.2,0,25.8,0,39.9,0c0,23.1,0,45.2,0,67.5c7.7,0,14,0,21.6,0
	c0-22.3,0-44.3,0-65.4c2.7-2.1,4.4-2.1,6.3-2c9,0.4,17.9,0.5,26.9,0.8c4,0.1,7-1.3,7.2-5.7c0.2-5.2,0.1-10.5,0.1-16.5
	C1163.6,59.3,1130.2,59.3,1096.1,59.3z"/>
<path class="st0" d="M1061.1,58.9c-26-0.3-52-0.3-78-0.4c-2,0-4,0.1-5.3,1.1c-1.8,2-1.4,4.1-1.4,6.1c-0.2,19.5-0.6,39-0.6,58.4
	c0,6.5-1.2,13,0.2,19.4c0.7,3.2,2.4,5.4,5.5,5.4c5.3,0,10.5-0.5,17.1-0.9c0-22.5,0-44.6,0-67.3c19.3,0,37.3,0,55.3,0
	c2.5,0,5,0.1,7.5,0.3c5.6,0.5,5.3,4.9,5.3,8.6c0,3.6-0.2,7.7-5.5,7.8c-9.7,0.1-19.3,0.3-29,0.3c-7.6,0.1-15.2,0-22.8,0
	c-0.3,0.5-0.6,1-0.9,1.5c14.8,16.5,29.5,33,43.5,48.7c10.8,0,20.1,0,29.9,0c-8.1-9.1-15.8-17.8-23.9-27c5.7-0.8,10.5-1,15-3
	c12.1-5.7,18.3-20.6,15.2-36.8C1085.4,67.1,1076,59.1,1061.1,58.9z"/>
<path class="st0" d="M943.2,59.2c-9.6-0.3-19.3-0.1-28.9-0.1c-9.6,0-19.3-0.1-28.9,0c-15,0.3-26.5,11.7-26.8,26.7
	c-0.2,11.5-0.2,23,0,34.5c0.3,16.3,11.5,27.6,27.8,27.9c18.7,0.3,37.3,0.3,56,0c14.4-0.2,26.4-11.5,26.9-25.7
	c0.5-12.6,0.5-25.3,0-37.9C968.6,70.6,957.2,59.6,943.2,59.2z M947.5,117.6c0,7.3-1.6,8.9-8.7,8.9c-8.3,0-16.6,0-25,0
	c-8.5,0-17,0.1-25.4,0c-6,0-7.9-1.8-8-7.6c-0.1-10-0.1-20,0-30c0-5,2.2-7.7,7.5-7.8c16.8,0,33.6-0.3,50.4-0.2c7.2,0,9.2,2.2,9.2,9.3
	C947.5,99.3,947.5,108.5,947.5,117.6z"/>
<path class="st0" d="M822.5,58.5c-26,0.6-51.9,0.3-77.9,0.1c-1.8,0-3.7,0.1-4.9,1.4c0,29.4,0,58.7,0,88.1c7.1,0,13.7,0,20.7,0
	c1.7-9.3-0.2-18.4,1-27.6c1.9-0.1,3.3-0.4,4.8-0.4c18.3,0,36.7,0,55,0c16.8,0,26.8-8.4,29.7-24.9C854.4,75.2,841.2,58.1,822.5,58.5z
	 M828.7,93.8c-0.8,4.1-4.2,4.1-7.5,4.1c-16.6,0-33.2,0.1-49.9-0.1c-3.2,0-6.6,1.5-9.7-0.5c-2.9-14.9-1.6-16.5,13-16.5
	c15,0,29.9,0,44.9,0c2.5,0,5-0.2,7.5,1.2C829.9,85.5,829.5,89.7,828.7,93.8z"/>
<path class="st0" d="M703.5,93.2c-16.3,0.1-32.7,0.1-49,0.1c-2.4,0-4.7-0.1-6.5-1.8c-2.7-7.5-0.6-10.6,6.8-10.6
	c22.3,0.1,44.6,0.1,67,0.2c1.8,0,3.7,0.1,5.3-1.7c0-6.3,0-12.9,0-19.2c-1.9-1.6-3.8-1.5-5.6-1.4c-24.3,0.1-48.6,0.2-73,0.3
	c-4.8,0-9.2,1.5-13,4.5c-9.7,7.5-13.5,21.2-9.3,33.3c4.2,12.2,12.9,18.2,26.7,18.2c16.7,0,33.3,0,50,0c5,0,7.5,2.6,6.7,6.9
	c-0.8,4.7-4.6,4.8-8.1,4.7c-21.3-0.3-42.6,0.7-63.9-0.6c-7.2-0.4-9.3,1.7-9,9c0.2,4,0.6,8,0.9,12.1c3.6,2.6,7.1,1.1,10.5,1.1
	c21.8,0.1,43.6,0,65.4,0.1c7.8,0,14.7-2.2,19.5-8.4c7.7-9.9,8.6-21.1,3.7-32.5C723.9,96.9,714.7,93.1,703.5,93.2z"/>
<g>
	<path class="st1" d="M614,87.6c-0.3-18.9-12.2-30.2-31-30.2c-21.5,0-43-0.1-64.5-0.1c-1.9,0-4-0.5-5.9,1.4c0,6.4,0,12.9,0,19.2
		c2.3,1.5,4.6,1.2,6.7,1.2c21,0,42,0,63,0c7.3,0,9.1,2.1,9.1,9.3c0,9.8,0.1,19.6,0,29.5c-0.1,8.3-2.2,10.3-10.3,10.3
		c-13.8,0.1-27.7,0.1-41.5,0.1c-1.7,0-3.4,0.1-5.1-1.5c-1.7-11.5,1.1-23.6-1.4-35.3c-7.3,0-13.8,0-20.9,0c0,19.3,0,38.2,0,57.1
		c2.9,1.3,5,1.5,7.2,1.4c5.6-0.2,11.3-0.5,16.9-0.6c16.8-0.1,33.7,0.1,50.5-0.1c13.9-0.1,25.5-11.4,26.6-24.9
		C614.4,112.2,614.2,99.9,614,87.6z"/>
	<path class="st1" d="M405.4,149.4c3.3,1,25.8,1.3,48.4,1.1c0,0,0,0,0,0c0.9,0,1.7,0,2.6,0c0,0,0,0,0,0c1.8,0,3.5,0,5.3-0.1
		c0,0,0,0,0,0c0.8,0,1.7,0,2.6,0c0,0,0,0,0,0c0.9,0,1.7,0,2.6,0c0,0,0,0,0,0c0.8,0,1.7,0,2.5,0c0,0,0,0,0,0c0.4,0,0.8,0,1.3,0
		c0,0,0,0,0,0c0.8,0,1.6,0,2.5-0.1c0,0,0,0,0,0c0.8,0,1.6,0,2.4-0.1c0,0,0,0,0,0c1.2,0,2.4-0.1,3.5-0.1c0,0,0,0,0,0c0,0,0,0,0,0
		c0,0,0,0,0,0c0.8,0,1.5,0,2.2-0.1c0,0,0,0,0,0h0c0,0,0,0,0,0c1.5,0,2.9-0.1,4.3-0.2h0c0,0,0,0,0,0c0,0,0,0,0,0
		c1.4,0,2.7-0.1,3.9-0.2c0,0,0,0,0,0c0,0,0,0,0,0c1.2,0,2.4-0.1,3.5-0.2c0,0,0,0,0,0h0c0,0,0,0,0,0c1.9-0.1,3.6-0.2,5.1-0.3h0h0
		c0,0,0,0,0,0c2.6-0.2,4.3-0.5,4.7-0.8c0-6.4,0-12.8,0-18.8c0,0,0,0,0,0c-2.5-2.4-5-2.2-7.5-2.1c-19,0.2-38,0.5-56.9,0.8
		c-4,0-7.9-0.3-11.6-2c-0.8-3.5-1-6.7,0.2-9.9c2.2-2,4.7-2,7.2-1.9c19.2,0,38.3,0,57.5,0c1.8,0,3.7,0.6,5.5-1.2
		c-0.3-6.7-0.6-13.6-0.9-21.4c-23.4,0-46.4,0-69.4,0c-0.8-4.2-0.8-7.5-0.2-10.3c2-2.6,4.4-2.3,6.7-2.3c21.2,0,42.3,0.1,63.5,0
		c2,0,4,0.5,6.1-1.4c0-6.3,0-13,0-20.2c-32.8,0-65.2,0-97.7,0C403.8,63.3,404,145.8,405.4,149.4z"/>
	<path class="st1" d="M367.7,57.4c-19.8-0.1-39.6-0.1-59.4,0c-14.9,0-27.5,12.1-27.9,27.1c-0.3,12.6-0.3,25.3,0.1,37.9
		c0.4,15.2,12.6,26.9,27.8,27c9.8,0.1,19.6,0,29.5,0c10.1,0,20.3,0.1,30.5,0c14.8-0.2,26.8-12.4,27.3-27c0.4-12.6,0.6-25.2,0-37.9
		C394.8,69.7,382.6,57.4,367.7,57.4z M373.3,119.8c0,5.7-2,7.6-8,7.6c-9.2,0-18.3,0-27.5,0c-9.2,0-18.3,0-27.5,0
		c-5.9,0-7.8-1.8-7.9-7.8c-0.1-10.7-0.2-21.3,0-32c0.1-6.3,2.2-8.4,8.5-8.5c18-0.1,36-0.2,53.9,0c6.3,0,8.3,2.2,8.3,8.6
		C373.4,98.5,373.4,109.2,373.3,119.8z"/>
	<path class="st1" d="M194.7,57.5c-12,0.2-22.7,10.8-24.5,22.6c-2.1,13.9-1.9,27.9-0.7,41.8c1.5,18,12.2,27.5,30.1,27.6
		c21.8,0.2,43.6-0.8,65.4,0.5c2.1,0.1,4.3,0,6.2-1.9c0-6.4,0-12.9,0-18.9c-2.6-2.2-5-1.8-7.3-1.8c-21,0-42,0-63,0
		c-7.9,0-9.6-1.7-9.6-9.7c0-9.7,0-19.3,0-29c0-7,2.1-9.4,9.1-9.5c21.3-0.2,42.6-0.1,64-0.2c2.3,0,4.7,0.4,7-1.8c0-6.2,0-12.7,0-19.4
		c-1.5-0.3-2.2-0.5-2.8-0.5C244,57.3,219.4,57.1,194.7,57.5z"/>
</g>
<path class="st0" d="M145.3,81.7c0.3-0.4,0.5-0.8,0.8-1.2c0.6-0.8,1.3-1.5,1.9-2.3c11.3-12.8,12.7-27.3,6.2-42.3
	c-6.2-14.4-18.3-20.5-33.6-20.5c-22-0.1-44,0-66,0c-24.3,0-40.9,20-36.6,43.9c1.6,8.8,6,16.1,12.5,22.3c-1.2,1.1-2.1,2-3.1,2.9
	c-11.5,10.1-15.5,26.8-10,42c5.1,14.3,17.2,22.8,33.4,23c24.1,0.2,48.3,0.5,72.4,0.3c14.6-0.1,26.8-5.4,32.9-19.8
	C164,111.3,160.5,96.6,145.3,81.7z M58.6,47.2c19.3,0,38.6,0,58,0c8,0,9.8,1.7,9.8,9.5c0,8.2-1.6,9.8-10,9.8c-9.5,0-19,0-28.5,0
	c-9.8,0-19.6,0-29.5,0c-6.9,0-8.8-2.2-8.9-9.5C49.4,49.3,51.4,47.2,58.6,47.2z M119.5,118.3c-10.6,0-21.3,0-31.9,0
	c-10.5,0-21,0.1-31.4,0c-7.3-0.1-9.5-2.5-9.4-10.3c0.1-7.2,2.3-9.5,9.6-9.5c21.1,0,42.2,0,63.4,0c7.2,0,9.1,2.4,9,10.5
	C128.7,115.9,126.3,118.3,119.5,118.3z"/>
<path class="st2" d="M1317.7,91.5c2.1-3.1,4.1-6.1,5.1-9.7c1.7-5.9,0.6-11.9,0.5-17.9c-0.2-14.2-7.8-21.7-22.1-21.7
	c-23,0-46,0.1-69,0c-8.3,0-16.2,1.2-23.7,5.4c-5.3-4.8-11.8-5.5-18.6-5.5c-29.2,0.1-58.3,0.2-87.5,0c-6.8,0-12.9,1.1-18,6
	c-8.6-4.9-17.9-6-27.5-6c-23.7,0.2-47.3,0.2-71,0c-7.9-0.1-15.3,0.4-20.9,6.6c-7.8-4.4-15.8-6.4-24.3-6.4c-15,0-30,0.3-45-0.1
	c-15.1-0.4-29.3,1.4-40.5,12.6c-13.4-10.9-19.4-13-36.5-13c-32.8-0.1-65.6,0.9-98.5,0.4c-22.7-0.4-45.3-0.1-68,0
	c-3.3,0-6.7,0.3-9.9,0.8c-9.8,1.5-17.4,6.9-23.9,13.9c-13.8-12-20.2-14.5-36.6-14.5c-56-0.1-112-0.1-168-0.2
	c-8.4,0-16.4,0.5-21.7,8.1c-7.3-4.9-14.9-7.7-23.3-7.8c-12.2-0.1-24.3-0.6-36.5-0.1C316,43,298.8,38.8,284,50.1
	c-4.7-6.4-10.8-8-17.9-8c-17.7,0.2-35.3,0.1-53,0.2c-13.7,0.1-27.7-1.7-40.1,7.5c-0.3-2.2-0.5-3.5-0.7-4.8
	c-3-25.5-23.7-44.4-49.3-44.7c-23.5-0.2-47-0.2-70.5,0c-13,0.1-24.4,4.4-33.9,13.5C3.7,28-4.6,54.3,10.1,80.4
	C1.7,95-0.1,101.5,0.3,115.7c0.8,26.8,21.2,47.9,47.9,48.6c24.3,0.6,48.6,0.4,73,0.6c16.2,0.1,30.4-4.9,41.7-16.9
	c14.4,13,21.6,16.4,35,16.5c22.3,0.2,44.7,0.2,67,0.4c7.5,0.1,14.3-1.3,18.9-7.8c13.3,6.9,15.4,7.4,30.8,7.4c16.7,0,33.3-0.2,50,0.1
	c9.8,0.1,18.8-1.9,27.4-7.7c4.9,6.9,11.7,8.5,19.5,8.5c54.5-0.4,109-0.8,163.4-0.8c14.2,0,27.9-0.3,39.1-10.5
	c6.5,9.1,10.8,11.2,21.4,11.2c21,0,42-0.2,63,0.1c10.4,0.1,20.6-0.7,29.8-6c3.5,3.2,7.3,5.4,11.7,5.7c7,0.4,14,0.7,21,0
	c9.6-1,15.8-8.3,16.9-18.1c0.4-3.2-1.2-6.6,0.8-9.6c21.7-2.1,43.7,2.9,65.1-4.2c0.4,1.1,0.8,2.2,1.2,3.2
	c6.5,17.2,22.2,28.3,40.7,28.5c16.7,0.2,33.3,0.2,50,0.4c10.5,0.1,20.5-1.2,29.8-6.8c5,5.1,11.2,7.4,18.1,7.4c3.7,0,7.3-0.4,11-0.5
	c12.4-0.1,21-8.6,21.2-21.1c0.1-3.7,0-7.4,0-12.1c8.3,9.2,15.7,17.5,23.1,25.8c4.5,5,10.2,7.4,16.8,7.4c9.3,0,18.7-0.2,28-0.1
	c7.2,0.1,12.7-2.8,15.6-9.5c2.9-6.7,1.4-12.6-3.6-17.9c-2.7-2.9-5.2-5.9-7.8-9c10.3-8.2,15.5-18.9,17.8-31c4.7,0,9.1,0,14,0
	c0,15.8-0.1,31.3,0,46.7c0.1,12.5,8.8,20.9,21.2,20.8c4,0,8-0.1,12,0c13.1,0.2,21.8-8.2,21.9-21.2c0.1-8.2,0-16.3,0-24.5
	c0-7.3,0-14.5,0-21.9c4.9-0.5,9.2-0.4,13.8,0.7c2,6.2,4.5,12.2,8.6,17.7c-4.8,5.6-6.1,11.9-5.4,18.8c0.2,2.5,0,5-0.1,7.5
	c-0.4,13.7,8.1,22.8,21.9,22.8c24.3,0.1,48.7,0.1,73-0.2c20-0.2,36.4-14.2,40.2-33.8C1329.1,116.9,1325.8,103.7,1317.7,91.5z
	 M156.2,129.9c-6.1,14.4-18.3,19.7-32.9,19.8c-24.1,0.2-48.3,0-72.4-0.3c-16.2-0.2-28.3-8.6-33.4-23c-5.5-15.3-1.5-31.9,10-42
	c1-0.9,1.9-1.8,3.1-2.9c-6.5-6.3-10.9-13.5-12.5-22.3c-4.3-23.9,12.3-43.9,36.6-43.9c22,0,44-0.1,66,0c15.3,0,27.4,6.1,33.6,20.5
	c6.5,15.1,5.1,29.6-6.2,42.3c-0.7,0.8-1.3,1.5-1.9,2.3c-0.3,0.4-0.6,0.8-0.8,1.2C160.5,96.6,164,111.3,156.2,129.9z M613.4,124.5
	c-1.1,13.6-12.7,24.8-26.6,24.9c-16.8,0.2-33.6,0-50.5,0.1c-5.7,0-11.3,0.4-16.9,0.6c-2.2,0.1-4.3-0.1-7.2-1.4c0-18.9,0-37.8,0-57.1
	c7.2,0,13.6,0,20.9,0c2.5,11.7-0.3,23.8,1.4,35.3c1.8,1.6,3.5,1.5,5.1,1.5c13.8,0,27.7,0,41.5-0.1c8.1,0,10.2-2.1,10.3-10.3
	c0.1-9.8,0-19.6,0-29.5c0-7.2-1.9-9.3-9.1-9.3c-21-0.1-42,0-63,0c-2.1,0-4.4,0.3-6.7-1.2c0-6.3,0-12.9,0-19.2
	c1.8-1.8,3.9-1.4,5.9-1.4c21.5,0,43,0.1,64.5,0.1c18.8,0,30.7,11.3,31,30.2C614.2,99.9,614.4,112.2,613.4,124.5z M498.2,149.2
	C498.2,149.2,498.2,149.2,498.2,149.2L498.2,149.2L498.2,149.2c-1.4,0.1-3.1,0.2-5.1,0.3c0,0,0,0,0,0h0c0,0,0,0,0,0
	c-1.1,0.1-2.3,0.1-3.5,0.2c0,0,0,0,0,0c0,0,0,0,0,0c-1.2,0.1-2.6,0.1-3.9,0.2c0,0,0,0,0,0c0,0,0,0,0,0h0c-1.4,0.1-2.8,0.1-4.3,0.2
	c0,0,0,0,0,0h0c0,0,0,0,0,0c-0.7,0-1.5,0-2.2,0.1c0,0,0,0,0,0c0,0,0,0,0,0c0,0,0,0,0,0c-1.1,0-2.3,0.1-3.5,0.1c0,0,0,0,0,0
	c-0.8,0-1.6,0-2.4,0.1c0,0,0,0,0,0c-0.8,0-1.6,0-2.5,0.1c0,0,0,0,0,0c-0.4,0-0.8,0-1.3,0c0,0,0,0,0,0c-0.8,0-1.7,0-2.5,0
	c0,0,0,0,0,0c-0.9,0-1.7,0-2.6,0c0,0,0,0,0,0c-0.8,0-1.7,0-2.6,0c0,0,0,0,0,0c-1.7,0-3.5,0-5.3,0.1c0,0,0,0,0,0c-0.9,0-1.7,0-2.6,0
	c0,0,0,0,0,0c-22.6,0.2-45.1-0.1-48.4-1.1c-1.3-3.7-1.6-86.1-0.1-91.7c32.5,0,64.9,0,97.7,0c0,7.2,0,13.8,0,20.2
	c-2.1,1.9-4.2,1.4-6.1,1.4c-21.2,0-42.3,0-63.5,0c-2.3,0-4.7-0.3-6.7,2.3c-0.6,2.9-0.6,6.1,0.2,10.3c23,0,46,0,69.4,0
	c0.3,7.8,0.6,14.7,0.9,21.4c-1.8,1.8-3.7,1.1-5.5,1.2c-19.2,0-38.3,0-57.5,0c-2.5,0-5-0.1-7.2,1.9c-1.2,3.1-0.9,6.4-0.2,9.9
	c3.7,1.7,7.6,2,11.6,2c19-0.2,38-0.5,56.9-0.8c2.5,0,5-0.2,7.5,2.1c0,0,0,0,0,0c0,6,0,12.4,0,18.8
	C502.6,148.7,500.9,148.9,498.2,149.2z M395.5,122.4c-0.5,14.7-12.5,26.8-27.3,27c-10.2,0.1-20.3,0-30.5,0c-9.8,0-19.7,0.1-29.5,0
	c-15.2-0.2-27.3-11.8-27.8-27c-0.4-12.6-0.4-25.3-0.1-37.9c0.4-15,13-27.1,27.9-27.1c19.8-0.1,39.6-0.1,59.4,0
	c14.9,0.1,27.1,12.3,27.8,27.2C396.1,97.2,395.9,109.8,395.5,122.4z M265.1,150c-21.8-1.3-43.6-0.3-65.4-0.5
	c-18-0.2-28.6-9.6-30.1-27.6c-1.2-13.9-1.4-27.9,0.7-41.8c1.8-11.8,12.5-22.4,24.5-22.6c24.6-0.4,49.3-0.2,73.9-0.2
	c0.6,0,1.3,0.2,2.8,0.5c0,6.8,0,13.2,0,19.4c-2.2,2.2-4.7,1.8-7,1.8c-21.3,0.1-42.6,0-64,0.2c-7.1,0.1-9.1,2.4-9.1,9.5
	c0,9.7,0,19.3,0,29c0,8.1,1.7,9.7,9.6,9.7c21,0,42,0,63,0c2.3,0,4.7-0.4,7.3,1.8c0,6,0,12.5,0,18.9
	C269.4,150.1,267.2,150.2,265.1,150z M724.9,140.1c-4.8,6.2-11.7,8.4-19.5,8.4c-21.8,0-43.6,0-65.4-0.1c-3.4,0-7,1.5-10.5-1.1
	c-0.3-4.2-0.8-8.1-0.9-12.1c-0.3-7.3,1.8-9.4,9-9c21.3,1.3,42.6,0.3,63.9,0.6c3.6,0,7.3-0.1,8.1-4.7c0.8-4.3-1.7-6.9-6.7-6.9
	c-16.7,0-33.3,0-50,0c-13.7,0-22.4-6-26.7-18.2c-4.2-12.1-0.4-25.8,9.3-33.3c3.8-2.9,8.2-4.4,13-4.5c24.3-0.1,48.6-0.2,73-0.3
	c1.8,0,3.7-0.2,5.6,1.4c0,6.3,0,12.8,0,19.2c-1.6,1.8-3.5,1.7-5.3,1.7c-22.3-0.1-44.6-0.1-67-0.2c-7.4,0-9.5,3-6.8,10.6
	c1.8,1.7,4.1,1.8,6.5,1.8c16.3-0.1,32.7,0,49-0.1c11.2-0.1,20.4,3.7,25.1,14.5C733.5,119,732.6,130.2,724.9,140.1z M851,95.3
	c-2.8,16.5-12.8,24.9-29.7,24.9c-18.3,0-36.7,0-55,0c-1.5,0-2.9,0.2-4.8,0.4c-1.3,9.2,0.6,18.3-1,27.6c-7,0-13.6,0-20.7,0
	c0-29.5,0-58.7,0-88.1c1.2-1.3,3-1.4,4.9-1.4c26,0.3,51.9,0.6,77.9-0.1C841.2,58.1,854.4,75.2,851,95.3z M969.2,122.6
	c-0.5,14.2-12.5,25.5-26.9,25.7c-18.7,0.2-37.3,0.3-56,0c-16.3-0.3-27.5-11.6-27.8-27.9c-0.2-11.5-0.2-23,0-34.5
	c0.3-15,11.8-26.4,26.8-26.7c9.6-0.2,19.3,0,28.9,0c9.6,0,19.3-0.2,28.9,0.1c13.9,0.4,25.4,11.3,25.9,25.4
	C969.7,97.3,969.7,110,969.2,122.6z M1073,118.1c-4.4,2.1-9.3,2.2-15,3c8.2,9.2,15.8,17.8,23.9,27c-9.8,0-19.2,0-29.9,0
	c-14-15.6-28.8-32.2-43.5-48.7c0.3-0.5,0.6-1,0.9-1.5c7.6,0,15.2,0,22.8,0c9.7-0.1,19.3-0.2,29-0.3c5.3-0.1,5.5-4.1,5.5-7.8
	c0-3.7,0.3-8.1-5.3-8.6c-2.5-0.2-5-0.3-7.5-0.3c-18,0-35.9,0-55.3,0c0,22.6,0,44.8,0,67.3c-6.6,0.4-11.8,0.9-17.1,0.9
	c-3.2,0-4.9-2.2-5.5-5.4c-1.3-6.5-0.2-13-0.2-19.4c0-19.5,0.4-39,0.6-58.4c0-2-0.4-4,1.4-6.1c1.3-1,3.3-1.1,5.3-1.1
	c26,0.1,52,0.1,78,0.4c14.9,0.2,24.3,8.2,27,22.3C1091.3,97.4,1085.1,112.4,1073,118.1z M1198.1,75.8c-0.2,4.4-3.2,5.8-7.2,5.7
	c-9-0.3-18-0.4-26.9-0.8c-1.9-0.1-3.6-0.1-6.3,2c0,21.1,0,43,0,65.4c-7.5,0-13.9,0-21.6,0c0-22.3,0-44.4,0-67.5
	c-14.2,0-26.8,0-39.9,0c0-7.5,0-14.2,0-21.4c34,0,67.5,0,102,0C1198.2,65.3,1198.3,70.5,1198.1,75.8z M1283.6,148.4
	c-23.5,0.4-47,0.1-70.5,0.1c-1.5,0-3,0-4.6-1.8c0-5.7,0-11.9,0-18.3c1.6-2,3.9-1.9,6.3-1.9c21.8,0.1,43.6,0.3,65.4,0.3
	c3.8,0,8,0.4,8.3-5.4c0.2-4.4-1.5-6.6-6-6.6c-14.8,0.1-29.6,0.1-44.4,0.3c-5.3,0.1-10.7,0.1-15.9-1.3c-12-3.4-20.3-16.9-18.7-30.1
	c1.8-14.6,12.1-24.7,25.8-24.8c21.5-0.1,43-0.1,64.5,0c3.9,0,8-1.5,12.5,1.2c0.2,5,0.8,10.2,0.7,15.3c-0.1,5.2-3.7,6.5-8.3,6.2
	c-21.5-1.4-42.9-0.3-64.4-0.7c-2.3,0-4.7,0-6.9,1.1c-2.2,3-1.1,6.2-0.9,9.3c3.3,2.2,6.7,1.9,10,1.9c15.8,0,31.6-0.1,47.5-0.3
	c14.3-0.2,24.3,8.8,26.2,24C1312.6,135.6,1302.4,148.1,1283.6,148.4z"/>
<path class="st2" d="M938.2,80.9c-16.8,0-33.6,0.2-50.4,0.2c-5.3,0-7.5,2.8-7.5,7.8c0,10-0.1,20,0,30c0.1,5.8,2,7.6,8,7.6
	c8.5,0.1,17,0,25.4,0c8.3,0,16.6,0,25,0c7.1,0,8.7-1.6,8.7-8.9c0-9.1,0.1-18.3,0-27.4C947.4,83.1,945.5,80.9,938.2,80.9z"/>
<path class="st2" d="M819.6,80.9c-15,0-29.9,0-44.9,0c-14.7,0-15.9,1.6-13,16.5c3.1,2,6.5,0.5,9.7,0.5c16.6,0.1,33.2,0,49.9,0.1
	c3.3,0,6.7,0,7.5-4.1c0.8-4.1,1.2-8.2-1.6-11.7C824.6,80.7,822.1,80.9,819.6,80.9z"/>
<path class="st2" d="M364.9,79.2c-18-0.2-36-0.1-53.9,0c-6.3,0-8.4,2.2-8.5,8.5c-0.2,10.7-0.2,21.3,0,32c0.1,5.9,2,7.7,7.9,7.8
	c9.2,0.1,18.3,0,27.5,0c9.2,0,18.3,0,27.5,0c5.9,0,7.9-1.9,8-7.6c0.1-10.7,0.1-21.3,0-32C373.2,81.5,371.2,79.3,364.9,79.2z"/>
<path class="st2" d="M119.8,98.5c-21.1,0-42.2,0-63.4,0c-7.3,0-9.5,2.3-9.6,9.5c-0.1,7.8,2,10.2,9.4,10.3c10.5,0.1,20.9,0,31.4,0
	c10.7,0,21.3,0,31.9,0c6.8,0,9.2-2.5,9.3-9.3C128.9,100.9,127,98.6,119.8,98.5z"/>
<path class="st2" d="M58.3,66.5c9.8,0,19.7,0,29.5,0c9.5,0,19,0,28.5,0c8.5,0,10-1.6,10-9.8c0-7.8-1.8-9.5-9.8-9.5
	c-19.3,0-38.7,0-58,0c-7.2,0-9.1,2.1-9.1,9.8C49.5,64.4,51.5,66.5,58.3,66.5z"/>
</svg>
